<svg xmlns="http://www.w3.org/2000/svg" width="230" height="56" viewBox="0 0 230 56"><rect width="100%" height="100%" fill="#ff1e1e"/><path fill="#ffffff" d="M59.76 21.13h-8.67v5.41h6.83v2.8h-6.83v5.52h8.67v2.9H47.44V18.24h12.32zm16.65-2.89v1.34q0 .62-.35 1.13L66.05 34.86h10.13v2.9H61.33v-1.43q0-.27.1-.52.09-.25.24-.47l10.05-14.21h-9.75v-2.89zM78.68 31v-2.78h7V31zm28.04-3q0 2.15-.71 3.94-.72 1.8-2.02 3.09-1.29 1.3-3.11 2.01-1.83.72-4.05.72h-7.44V18.24h7.44q2.22 0 4.05.72 1.82.72 3.11 2.01 1.3 1.29 2.02 3.09.71 1.79.71 3.94M103 28q0-1.61-.43-2.88-.42-1.28-1.23-2.16-.8-.89-1.94-1.36t-2.57-.47h-3.8v13.74h3.8q1.43 0 2.57-.47t1.94-1.36q.81-.88 1.23-2.16.43-1.27.43-2.88m25.54 0q0 2.15-.71 3.98-.71 1.82-2.01 3.16-1.29 1.34-3.11 2.09-1.83.75-4.05.75t-4.04-.75-3.13-2.09q-1.3-1.34-2.01-3.16-.72-1.83-.72-3.98t.72-3.98q.71-1.83 2.01-3.16 1.31-1.34 3.13-2.09t4.04-.75q1.48 0 2.79.35 1.31.34 2.4.97 1.1.63 1.97 1.52.87.9 1.48 2.01.6 1.11.92 2.4.32 1.3.32 2.73m-3.71 0q0-1.61-.44-2.88-.43-1.28-1.23-2.17-.79-.89-1.93-1.36-1.14-.48-2.57-.48-1.44 0-2.58.48-1.14.47-1.94 1.36t-1.24 2.17q-.43 1.27-.43 2.88t.43 2.88q.44 1.28 1.24 2.16.8.89 1.94 1.36t2.58.47q1.43 0 2.57-.47t1.93-1.36q.8-.88 1.23-2.16.44-1.27.44-2.88m25.52 0q0 2.15-.71 3.98-.7 1.82-2 3.16t-3.12 2.09-4.05.75q-2.21 0-4.03-.75-1.83-.75-3.13-2.09t-2.02-3.16q-.71-1.83-.71-3.98t.71-3.98q.72-1.83 2.02-3.16 1.3-1.34 3.13-2.09 1.82-.75 4.03-.75 1.49 0 2.8.35 1.31.34 2.4.97t1.96 1.52q.87.9 1.48 2.01t.93 2.4q.31 1.3.31 2.73m-3.71 0q0-1.61-.43-2.88-.43-1.28-1.23-2.17t-1.94-1.36q-1.14-.48-2.57-.48t-2.57.48q-1.14.47-1.94 1.36-.81.89-1.24 2.17-.43 1.27-.43 2.88t.43 2.88q.43 1.28 1.24 2.16.8.89 1.94 1.36t2.57.47 2.57-.47 1.94-1.36q.8-.88 1.23-2.16.43-1.27.43-2.88m10.54-.47h2.27q1.03 0 1.79-.26t1.26-.71q.49-.45.73-1.07.25-.62.25-1.36 0-1.49-.98-2.29-.98-.79-2.99-.79h-2.33zm6.73 3.02 4.88 7.21h-3.28q-.93 0-1.35-.73l-4.1-6.25q-.23-.35-.51-.5-.27-.15-.81-.15h-1.56v7.63h-3.63V18.24h5.96q1.98 0 3.41.41 1.42.41 2.33 1.16.91.74 1.34 1.77.44 1.03.44 2.28 0 .98-.29 1.86t-.84 1.59q-.55.72-1.35 1.26t-1.83.85q.35.2.65.48.29.27.54.65m18.3-10.47-.9 1.71q-.16.28-.35.41-.18.13-.45.13-.28 0-.61-.21t-.79-.47q-.46-.25-1.07-.46-.62-.21-1.46-.21-.75 0-1.32.18t-.95.51q-.39.32-.57.77-.19.46-.19 1 0 .69.38 1.14.39.46 1.02.79.64.32 1.45.58.81.25 1.66.54t1.66.68q.81.38 1.44.97.64.59 1.02 1.44t.38 2.06q0 1.33-.45 2.48-.45 1.16-1.32 2.01-.87.86-2.13 1.35-1.25.5-2.87.5-.93 0-1.84-.19-.9-.18-1.73-.52-.83-.33-1.56-.81-.73-.47-1.3-1.05l1.07-1.74q.13-.19.35-.32t.46-.13q.34 0 .73.28t.93.61q.54.34 1.26.62t1.74.28q1.55 0 2.4-.74t.85-2.11q0-.77-.39-1.26-.38-.48-1.01-.81-.64-.34-1.45-.56-.81-.23-1.65-.5-.83-.27-1.64-.65t-1.45-.99q-.63-.61-1.02-1.52-.38-.91-.38-2.24 0-1.07.42-2.08.43-1.02 1.24-1.8t2-1.25q1.18-.48 2.72-.48 1.73 0 3.19.54t2.48 1.52"/></svg>